<svg width="23" height="21" viewBox="0 0 23 21" fill="none" xmlns="http://www.w3.org/2000/svg">
<path d="M15 10.5C14.9996 13.9509 14.1506 17.3488 12.5278 20.3944C12.4593 20.5268 12.3652 20.6442 12.251 20.74C12.1367 20.8357 12.0046 20.9077 11.8622 20.952C11.7199 20.9962 11.5702 21.0117 11.4218 20.9975C11.2734 20.9834 11.1293 20.9399 10.9979 20.8696C10.8664 20.7992 10.7503 20.7035 10.6562 20.5879C10.562 20.4723 10.4918 20.3392 10.4496 20.1963C10.4074 20.0533 10.394 19.9034 10.4102 19.7552C10.4264 19.607 10.4719 19.4636 10.5441 19.3331C11.9927 16.6142 12.7503 13.5807 12.75 10.5C12.75 10.3011 12.671 10.1103 12.5303 9.96967C12.3897 9.82902 12.1989 9.75 12 9.75C11.8011 9.75 11.6103 9.82902 11.4697 9.96967C11.329 10.1103 11.25 10.3011 11.25 10.5C11.25 10.7984 11.1315 11.0845 10.9205 11.2955C10.7095 11.5065 10.4234 11.625 10.125 11.625C9.82664 11.625 9.54049 11.5065 9.32951 11.2955C9.11853 11.0845 9 10.7984 9 10.5C9 9.70435 9.31607 8.94129 9.87868 8.37868C10.4413 7.81607 11.2044 7.5 12 7.5C12.7957 7.5 13.5587 7.81607 14.1213 8.37868C14.6839 8.94129 15 9.70435 15 10.5ZM12 3.75C11.7016 3.75 11.4155 3.86853 11.2045 4.0795C10.9935 4.29048 10.875 4.57663 10.875 4.875C10.875 5.17337 10.9935 5.45952 11.2045 5.6705C11.4155 5.88147 11.7016 6 12 6C13.1931 6.00124 14.337 6.47574 15.1806 7.31939C16.0243 8.16303 16.4988 9.30691 16.5 10.5C16.5 11.2144 16.4663 11.9362 16.3997 12.6441C16.3851 12.7915 16.3997 12.9403 16.4428 13.0821C16.4859 13.2238 16.5565 13.3557 16.6507 13.4701C16.7449 13.5844 16.8607 13.6791 16.9915 13.7486C17.1224 13.8181 17.2656 13.861 17.4131 13.875H17.52C17.7998 13.8746 18.0693 13.77 18.2761 13.5816C18.4829 13.3932 18.6121 13.1345 18.6384 12.8559C18.7125 12.0778 18.7491 11.2847 18.7491 10.5C18.7471 8.71056 18.0354 6.99497 16.7702 5.72955C15.5049 4.46414 13.7894 3.75223 12 3.75ZM9 7.14656C9.21443 6.9456 9.34171 6.6687 9.35461 6.37511C9.36751 6.08151 9.26501 5.79452 9.06904 5.57552C8.87307 5.35652 8.59918 5.2229 8.30596 5.20324C8.01273 5.18358 7.72346 5.27944 7.5 5.47031C6.79278 6.10366 6.22691 6.87888 5.83924 7.74548C5.45157 8.61209 5.2508 9.55064 5.25 10.5C5.25049 12.4149 4.76262 14.2983 3.8325 15.9722C3.68717 16.2333 3.65151 16.5414 3.73335 16.8287C3.81519 17.1161 4.00784 17.3592 4.26891 17.5045C4.52998 17.6499 4.83809 17.6855 5.12546 17.6037C5.41283 17.5218 5.65592 17.3292 5.80125 17.0681C6.91682 15.0588 7.50149 12.7982 7.5 10.5C7.50057 9.86705 7.63443 9.24132 7.89287 8.66354C8.15132 8.08575 8.52855 7.56888 9 7.14656ZM9.94688 13.1559C9.80308 13.1216 9.65393 13.116 9.50795 13.1394C9.36197 13.1628 9.22203 13.2147 9.09613 13.2922C8.97023 13.3696 8.86084 13.4712 8.77421 13.591C8.68758 13.7108 8.62541 13.8465 8.59125 13.9903C8.23034 15.5074 7.63305 16.9582 6.82125 18.2897C6.6661 18.5445 6.61855 18.8506 6.68905 19.1405C6.75955 19.4304 6.94233 19.6805 7.19719 19.8356C7.45205 19.9908 7.7581 20.0383 8.04802 19.9678C8.33794 19.8973 8.58798 19.7145 8.74313 19.4597C9.67734 17.9272 10.3651 16.2575 10.7813 14.5116C10.8156 14.3678 10.8212 14.2186 10.7978 14.0726C10.7744 13.9267 10.7225 13.7867 10.645 13.6608C10.5675 13.5349 10.466 13.4255 10.3462 13.3389C10.2264 13.2523 10.0907 13.1901 9.94688 13.1559ZM17.1403 15.4125C16.9973 15.3752 16.8483 15.3665 16.7018 15.3869C16.5554 15.4073 16.4144 15.4563 16.287 15.5312C16.1595 15.606 16.048 15.7053 15.959 15.8233C15.8699 15.9413 15.8049 16.0757 15.7678 16.2187C15.5601 17.0089 15.3097 17.7872 15.0178 18.5503C14.9113 18.8288 14.9197 19.1382 15.0412 19.4105C15.1627 19.6828 15.3873 19.8957 15.6656 20.0025C15.7938 20.0524 15.9302 20.0778 16.0678 20.0775C16.2956 20.0776 16.518 20.0085 16.7056 19.8794C16.8933 19.7504 17.0373 19.5674 17.1188 19.3547C17.4405 18.5152 17.7156 17.6586 17.9428 16.7887C17.9807 16.6457 17.99 16.4966 17.9701 16.3499C17.9503 16.2032 17.9017 16.0619 17.8271 15.9341C17.7526 15.8063 17.6536 15.6944 17.5357 15.6049C17.4178 15.5154 17.2835 15.45 17.1403 15.4125ZM12 0C9.22521 0.00291879 6.56413 1.10291 4.59714 3.06006C2.63014 5.01722 1.51683 7.67275 1.5 10.4475V10.5009C1.50017 11.3913 1.34144 12.2745 1.03125 13.1091C0.978665 13.2478 0.954047 13.3956 0.958818 13.5439C0.96359 13.6922 0.997656 13.8381 1.05906 13.9732C1.12045 14.1083 1.20797 14.2299 1.31657 14.3311C1.42517 14.4322 1.5527 14.5108 1.69182 14.5625C1.83094 14.6141 1.9789 14.6377 2.12718 14.6319C2.27546 14.6261 2.42112 14.591 2.55579 14.5287C2.69045 14.4664 2.81146 14.378 2.91183 14.2687C3.0122 14.1594 3.08996 14.0313 3.14063 13.8919C3.53801 12.8237 3.74428 11.694 3.75 10.5544V10.5009C3.74379 8.3129 4.60702 6.21201 6.1498 4.66044C7.69258 3.10887 9.78853 2.23372 11.9766 2.2275C14.1646 2.22128 16.2655 3.08452 17.8171 4.6273C19.3686 6.17008 20.2438 8.26603 20.25 10.4541V10.5009C20.2506 12.4364 20.0387 14.3661 19.6181 16.2553C19.553 16.5465 19.6062 16.8516 19.766 17.1035C19.9258 17.3555 20.1792 17.5336 20.4703 17.5987C20.5519 17.6168 20.6352 17.6256 20.7188 17.625C20.9743 17.6248 21.2221 17.5376 21.4215 17.3777C21.6208 17.2179 21.7598 16.995 21.8156 16.7456C22.2681 14.7119 22.4976 12.635 22.5 10.5516V10.5009C22.497 7.71699 21.3899 5.04791 19.4214 3.07927C17.4529 1.11064 14.7839 0.00322603 12 0Z" fill="#F2F2FA"/>
</svg>
